<?xml version="1.0" encoding="utf-8"?>
<!-- Generator: Adobe Illustrator 16.0.0, SVG Export Plug-In . SVG Version: 6.00 Build 0)  -->
<!DOCTYPE svg PUBLIC "-//W3C//DTD SVG 1.1//EN" "http://www.w3.org/Graphics/SVG/1.1/DTD/svg11.dtd">
<svg version="1.1" id="Layer_1" xmlns="http://www.w3.org/2000/svg" xmlns:xlink="http://www.w3.org/1999/xlink" x="0px" y="0px"
	 width="512px" height="745.5px" viewBox="-8 -67.5 512 745.5" enable-background="new -8 -67.5 512 745.5" xml:space="preserve">
<g>
	<path fill="none" stroke="#000000" stroke-width="5" d="M370.302,671.199"/>
	<path fill="none" stroke="#000000" stroke-width="5" d="M199.327,708.656"/>
	<path fill="none" stroke="#000000" stroke-width="5" d="M382,666l-11.137-48.525c-2.679-10.479-4.24-21.97-4.688-34.466
		c-0.811-12.416,1.106-25.431,5.759-39.043c4.286-13.534,10.684-29.628,19.19-48.284c8.587-18.292,15.126-34.606,19.615-48.948
		c4.208-13.898,8.043-32.104,11.507-54.615c3.181-22.069,5.04-42.321,5.58-60.758c0.621-18.074,5.863-47.273,15.729-87.599
		c9.946-39.961,15.419-64.631,16.418-74.009c0.998-9.378,1.02-16.252,0.062-20.623c-0.878-4.005-3.576-7.613-8.096-10.82
		c-4.439-2.844-7.975-4.168-10.604-3.975c-2.629,0.195-5.098,1.117-7.407,2.768c-2.675,1.731-11.642,25.258-26.898,70.582
		c0,0-21.688,65.289-22.891,67.986c-1.199,2.695-13.629,12.574-14.103-9.505c-0.316-14.719-0.316-14.719,0,0
		c-1.356-6.191,3.354-40.426,14.136-102.706c0,0,15.1-75.438,15.188-85.476c0.091-10.038-1.545-14.259-1.545-14.259
		c-1.687-4.21-4.082-7.311-7.189-9.302c-3.028-1.626-6.887-2.689-11.576-3.189c-4.973-0.055-8.653,0.561-11.044,1.847
		c-2.674,1.731-4.864,3.928-6.571,6.592c-1.626,3.028-3.06,8.685-4.297,16.971c-1.521,8.729-6.823,30.69-15.905,65.883
		s-14.312,59.236-15.684,72.131c0,0-1.573,16.66-2.605,19.462c-1.033,2.803-6.814,10.367-8.06-2.814c-0.829-8.787-0.829-8.787,0,0
		c-0.877-4.005-0.951-20.019-0.22-48.039c0.367-27.94,1.739-60.871,4.118-98.793c0,0,2.792-37.535,2.763-48.119
		s-2.678-17.446-2.678-17.446c-6.523-8.875-7.967-10.276-17.386-10.789c-9.42-0.513-13.469,1.233-13.469,1.233
		c-3.768,1.97-6.646,4.509-8.637,7.616c-2.275,3.552-4.727,11.531-7.352,23.937c-2.545,12.77-5.035,34.497-7.473,65.181
		c-2.438,30.684-3.591,57.651-3.459,80.902c0,0-0.213,33.965-0.347,34.996c-0.134,1.032-0.864,1.621-2.426,1.677
		c-1.562,0.056-1.759-2.477-1.759-2.477l-2.383-34.398c-1.59-22.932-1.836-48.448-0.74-76.547c0.73-28.021,0.787-46.925,0.17-56.711
		c-0.617-9.788-2.053-16.342-4.309-19.665c-2.254-3.323-5.886-5.962-10.894-7.918c-4.928-1.592-9.964-1.062-15.107,1.592
		c-5.144,2.653-9.137,6.2-11.98,10.639c-3.129,4.883-5.841,12.538-8.137,22.963c-2.296,10.425-4.18,25.341-5.654,44.746
		c-1.473,19.405-2.148,42.451-2.026,69.14c-0.163,27.131,0.526,46.826,2.066,59.083c1.176,12.337,0.225,26.284-2.855,41.843
		c-3.079,15.558-6.859,28.79-11.34,39.694c-4.765,11.349-9.422,20.573-13.973,27.677c-4.914,7.184-8.686,10.871-11.315,11.066
		c-2.629,0.193-5.799-1.212-9.511-4.214c-3.994-2.562-13.342-13.869-28.041-33.931c-14.699-20.06-25.72-32.911-33.062-38.553
		c-7.342-5.643-14.627-10.153-21.855-13.531c-7.229-3.378-14.217-5.663-20.965-6.856c-7.114-1.112-13.766-0.991-19.957,0.365
		c-6.191,1.356-10.503,3.445-12.938,6.269c-2.354,3.188-3.072,6.016-2.149,8.485c0.559,2.549,4.384,7.817,11.477,15.804
		c7.093,7.988,17.642,23.042,31.646,45.162c14.085,22.483,22.273,36.338,24.562,41.562c2.005,5.666,3.042,10.4,3.111,14.201
		c0.07,3.801,1.523,11.307,4.36,22.516c2.917,11.574,5.542,19.204,7.877,22.891c1.97,3.768,14.141,17.512,36.511,41.233
		c22.087,24.166,38.617,40.39,49.591,48.671c10.974,8.283,17.315,17.197,19.025,26.745c1.79,9.913,3.26,32.299,4.409,67.157
		l1.843,52.836"/>
</g>
<circle opacity="0.7" fill="#7696CD" cx="442.362" cy="151.507" r="31"/>
</svg>
